<svg width="1200" height="628" viewBox="0 0 1200 628" fill="none" xmlns="http://www.w3.org/2000/svg">
<rect width="1200" height="628" fill="#0A0A0A"/>
<path d="M403 380.957V276.394H421.629V285.408H424.333C426.036 282.503 428.69 279.949 432.296 277.746C435.901 275.442 441.059 274.291 447.77 274.291C453.779 274.291 459.338 275.793 464.446 278.798C469.554 281.702 473.66 286.009 476.765 291.718C479.87 297.427 481.423 304.338 481.423 312.45V314.854C481.423 322.967 479.87 329.877 476.765 335.586C473.66 341.295 469.554 345.652 464.446 348.657C459.338 351.561 453.779 353.014 447.77 353.014C443.263 353.014 439.457 352.463 436.352 351.361C433.347 350.359 430.894 349.057 428.991 347.455C427.188 345.752 425.736 344.05 424.634 342.347H421.93V380.957H403ZM442.061 336.488C447.97 336.488 452.828 334.635 456.634 330.929C460.54 327.123 462.493 321.615 462.493 314.403V312.901C462.493 305.69 460.54 300.231 456.634 296.525C452.728 292.719 447.87 290.816 442.061 290.816C436.252 290.816 431.394 292.719 427.488 296.525C423.582 300.231 421.629 305.69 421.629 312.901V314.403C421.629 321.615 423.582 327.123 427.488 330.929C431.394 334.635 436.252 336.488 442.061 336.488Z" fill="white"/>
<path d="M478.973 380.957V364.732H488.888C491.693 364.732 493.095 363.23 493.095 360.225V276.394H512.025V364.131C512.025 369.239 510.522 373.295 507.518 376.3C504.513 379.405 500.507 380.957 495.499 380.957H478.973Z" fill="white"/>
<path d="M550.121 353.014C544.813 353.014 540.055 352.112 535.849 350.309C531.642 348.406 528.287 345.702 525.783 342.197C523.379 338.591 522.177 334.234 522.177 329.126C522.177 324.018 523.379 319.762 525.783 316.356C528.287 312.851 531.692 310.247 535.999 308.544C540.406 306.741 545.414 305.84 551.022 305.84H571.454V301.633C571.454 298.128 570.352 295.273 568.149 293.07C565.946 290.766 562.44 289.615 557.633 289.615C552.925 289.615 549.42 290.716 547.116 292.92C544.813 295.023 543.31 297.777 542.609 301.183L525.182 295.323C526.384 291.518 528.287 288.062 530.891 284.957C533.595 281.752 537.151 279.198 541.557 277.295C546.065 275.292 551.523 274.291 557.933 274.291C567.748 274.291 575.511 276.744 581.219 281.652C586.928 286.56 589.783 293.671 589.783 302.985V330.779C589.783 333.784 591.185 335.286 593.989 335.286H599.999V350.91H587.379C583.673 350.91 580.619 350.009 578.215 348.206C575.811 346.403 574.609 344 574.609 340.995V340.845H571.755C571.354 342.046 570.453 343.649 569.05 345.652C567.648 347.555 565.445 349.258 562.44 350.76C559.435 352.262 555.329 353.014 550.121 353.014ZM553.426 337.69C558.734 337.69 563.041 336.237 566.346 333.333C569.752 330.328 571.454 326.372 571.454 321.464V319.962H552.374C548.869 319.962 546.115 320.713 544.111 322.215C542.108 323.718 541.107 325.821 541.107 328.525C541.107 331.23 542.158 333.433 544.262 335.136C546.365 336.838 549.42 337.69 553.426 337.69Z" fill="white"/>
<path d="M607.83 350.91V276.394H626.459V286.159H629.163C630.365 283.555 632.619 281.101 635.924 278.798C639.229 276.394 644.237 275.192 650.947 275.192C656.756 275.192 661.814 276.544 666.121 279.248C670.528 281.852 673.933 285.508 676.337 290.215C678.741 294.823 679.942 300.231 679.942 306.441V350.91H661.013V307.943C661.013 302.334 659.611 298.128 656.806 295.323C654.102 292.519 650.196 291.117 645.088 291.117C639.279 291.117 634.772 293.07 631.567 296.976C628.362 300.782 626.759 306.14 626.759 313.051V350.91H607.83Z" fill="white"/>
<path d="M717.533 353.014C712.225 353.014 707.467 352.112 703.261 350.309C699.054 348.406 695.699 345.702 693.195 342.197C690.791 338.591 689.589 334.234 689.589 329.126C689.589 324.018 690.791 319.762 693.195 316.356C695.699 312.851 699.104 310.247 703.411 308.544C707.818 306.741 712.825 305.84 718.434 305.84H738.866V301.633C738.866 298.128 737.764 295.273 735.561 293.07C733.358 290.766 729.852 289.615 725.045 289.615C720.337 289.615 716.832 290.716 714.528 292.92C712.225 295.023 710.722 297.777 710.021 301.183L692.594 295.323C693.796 291.518 695.699 288.062 698.303 284.957C701.007 281.752 704.563 279.198 708.969 277.295C713.476 275.292 718.935 274.291 725.345 274.291C735.16 274.291 742.922 276.744 748.631 281.652C754.34 286.56 757.195 293.671 757.195 302.985V330.779C757.195 333.784 758.597 335.286 761.401 335.286H767.411V350.91H754.791C751.085 350.91 748.03 350.009 745.627 348.206C743.223 346.403 742.021 344 742.021 340.995V340.845H739.167C738.766 342.046 737.865 343.649 736.462 345.652C735.06 347.555 732.857 349.258 729.852 350.76C726.847 352.262 722.741 353.014 717.533 353.014ZM720.838 337.69C726.146 337.69 730.453 336.237 733.758 333.333C737.163 330.328 738.866 326.372 738.866 321.464V319.962H719.786C716.281 319.962 713.527 320.713 711.523 322.215C709.52 323.718 708.519 325.821 708.519 328.525C708.519 331.23 709.57 333.433 711.674 335.136C713.777 336.838 716.832 337.69 720.838 337.69Z" fill="white"/>
<path d="M775.242 350.91V276.394H794.171V350.91H775.242Z" fill="white"/>
</svg>
