<svg width="151" height="40" viewBox="0 0 151 40" fill="none" xmlns="http://www.w3.org/2000/svg">
<rect width="40" height="40" fill="white"/>
<path d="M17.997 29L18.5846 22.3129L13.0297 26.1341L11 22.8156L17.1424 20L11 17.1341L13.0297 13.8659L18.5846 17.6872L17.997 11H22.003L21.4154 17.6872L26.9703 13.8659L29 17.1341L22.8042 20L29 22.8156L26.9703 26.1341L21.4154 22.3129L22.003 29H17.997Z" fill="#050506"/>
<rect width="111" height="40" transform="translate(40)" fill="#0E0F11"/>
<path d="M55.216 25V14.024H63.776V15.8H57.296V18.504H63.072V20.28H57.296V23.224H63.872V25H55.216ZM65.966 25V14.024H69.246L70.974 20.136C71.038 20.3493 71.102 20.5893 71.166 20.856C71.23 21.1227 71.2887 21.3787 71.342 21.624C71.406 21.8693 71.454 22.0827 71.486 22.264H71.614C71.6353 22.104 71.6673 21.9067 71.71 21.672C71.7527 21.4373 71.8007 21.1867 71.854 20.92C71.918 20.6427 71.9873 20.376 72.062 20.12L73.79 14.024H77.038V25H74.958V19.448C74.958 18.9573 74.9633 18.4667 74.974 17.976C74.9847 17.4853 74.9953 17.064 75.006 16.712C75.0273 16.36 75.038 16.152 75.038 16.088H74.91C74.8887 16.184 74.8353 16.392 74.75 16.712C74.6647 17.032 74.574 17.3787 74.478 17.752C74.382 18.1253 74.2967 18.4453 74.222 18.712L72.414 25H70.494L68.686 18.728C68.622 18.504 68.5473 18.2373 68.462 17.928C68.3873 17.608 68.3073 17.2827 68.222 16.952C68.1473 16.6213 68.078 16.3333 68.014 16.088H67.886C67.8967 16.376 67.9073 16.7227 67.918 17.128C67.9287 17.5227 67.9393 17.928 67.95 18.344C67.9607 18.7493 67.966 19.1173 67.966 19.448V25H65.966ZM82.6691 25V14.024H88.6531C89.2398 14.024 89.7625 14.136 90.2211 14.36C90.6905 14.584 91.0585 14.8987 91.3251 15.304C91.5918 15.7093 91.7251 16.184 91.7251 16.728C91.7251 17.144 91.6451 17.5227 91.4851 17.864C91.3251 18.2053 91.1065 18.4933 90.8291 18.728C90.5625 18.952 90.2585 19.1227 89.9171 19.24V19.304C90.3225 19.3893 90.6851 19.5547 91.0051 19.8C91.3251 20.0347 91.5758 20.3387 91.7571 20.712C91.9385 21.0747 92.0291 21.496 92.0291 21.976C92.0291 22.6587 91.8745 23.224 91.5651 23.672C91.2665 24.12 90.8611 24.456 90.3491 24.68C89.8478 24.8933 89.2825 25 88.6531 25H82.6691ZM84.7491 23.224H88.3811C88.8185 23.224 89.1758 23.1067 89.4531 22.872C89.7411 22.6267 89.8851 22.248 89.8851 21.736C89.8851 21.4373 89.8265 21.176 89.7091 20.952C89.5918 20.728 89.4105 20.5573 89.1651 20.44C88.9305 20.312 88.6265 20.248 88.2531 20.248H84.7491V23.224ZM84.7491 18.504H88.1091C88.4291 18.504 88.6958 18.4453 88.9091 18.328C89.1331 18.2107 89.2985 18.0507 89.4051 17.848C89.5225 17.6453 89.5811 17.4213 89.5811 17.176C89.5811 16.7067 89.4531 16.36 89.1971 16.136C88.9518 15.912 88.6265 15.8 88.2211 15.8H84.7491V18.504ZM93.966 25V14.024H99.742C100.553 14.024 101.225 14.1627 101.758 14.44C102.291 14.7173 102.691 15.112 102.958 15.624C103.225 16.136 103.358 16.7387 103.358 17.432C103.358 18.1467 103.198 18.7813 102.878 19.336C102.558 19.88 102.089 20.2907 101.47 20.568L103.742 25H101.47L99.454 20.92H96.046V25H93.966ZM96.046 19.176H99.582C100.115 19.176 100.526 19.0213 100.814 18.712C101.102 18.4027 101.246 17.976 101.246 17.432C101.246 17.08 101.182 16.7867 101.054 16.552C100.926 16.3067 100.739 16.12 100.494 15.992C100.249 15.864 99.9447 15.8 99.582 15.8H96.046V19.176ZM105.435 25V14.024H113.995V15.8H107.515V18.504H113.291V20.28H107.515V23.224H114.091V25H105.435ZM119.129 25L115.129 14.024H117.385L119.993 21.576C120.035 21.6827 120.078 21.8053 120.121 21.944C120.163 22.0827 120.206 22.216 120.249 22.344C120.291 22.4613 120.329 22.568 120.361 22.664H120.441C120.473 22.5787 120.505 22.4773 120.537 22.36C120.579 22.2427 120.622 22.12 120.665 21.992C120.707 21.8533 120.75 21.72 120.793 21.592L123.385 14.024H125.545L121.545 25H119.129ZM126.919 25V14.024H135.479V15.8H128.999V18.504H134.775V20.28H128.999V23.224H135.575V25H126.919Z" fill="white"/>
</svg>
