<svg width="104" height="27" viewBox="0 0 104 27" fill="none" xmlns="http://www.w3.org/2000/svg">
<path d="M9.65644 25.7519H0V24.3874C0.793041 24.0142 1.56276 23.7343 2.30915 23.5477V3.74499L0 3.4651V2.1006C0.373196 1.93733 0.828028 1.78572 1.3645 1.64577C1.92429 1.50582 2.49575 1.3892 3.07887 1.2959C3.66198 1.17927 4.22178 1.08597 4.75825 1.016C5.31804 0.946025 5.78454 0.887713 6.15773 0.841064H7.34729V4.75962H7.38228C7.7788 3.64003 8.39691 2.70704 9.2366 1.96065C10.0996 1.21426 11.2892 0.841064 12.8053 0.841064C13.8316 0.841064 14.7529 1.016 15.5693 1.36587C16.409 1.69242 17.1087 2.21722 17.6685 2.94029C18.2516 3.64003 18.6948 4.5497 18.998 5.66929C19.3245 6.76555 19.4878 8.0834 19.4878 9.62283C19.4878 11.0923 19.2779 12.4218 18.8581 13.6114C18.4615 14.8009 17.8784 15.8039 17.1087 16.6202C16.3623 17.4366 15.441 18.0664 14.3447 18.5096C13.2718 18.9527 12.0472 19.1743 10.6711 19.1743C9.87803 19.1743 9.24826 19.116 8.78176 18.9994C8.3386 18.9061 7.86044 18.7311 7.34729 18.4746V23.5477C7.72049 23.5943 8.09369 23.676 8.46688 23.7926C8.84008 23.9326 9.2366 24.1308 9.65644 24.3874V25.7519ZM10.776 3.64003C9.98299 3.64003 9.27158 3.91993 8.64182 4.47972C8.03537 5.03952 7.60387 5.90253 7.34729 7.06877V16.3753C7.72049 16.6552 8.11701 16.8652 8.53685 17.0051C8.9567 17.1217 9.50483 17.18 10.1812 17.18C11.5108 17.18 12.4904 16.5386 13.1202 15.2558C13.7499 13.9729 14.0648 12.0953 14.0648 9.62283C14.0648 7.7102 13.8199 6.24074 13.3301 5.21445C12.8636 4.16484 12.0122 3.64003 10.776 3.64003Z" fill="white"/>
<path d="M23.9793 3.74499L21.6701 3.4651V2.1006C22.02 1.93733 22.4515 1.78572 22.9647 1.64577C23.4778 1.50582 24.0259 1.3892 24.6091 1.2959C25.1922 1.17927 25.7636 1.08597 26.3234 1.016C26.9065 0.946025 27.408 0.887713 27.8279 0.841064H29.0174V17.25C29.0174 18.3463 28.8775 19.3259 28.5976 20.1889C28.341 21.052 27.9911 21.7983 27.548 22.4281C27.1281 23.0579 26.65 23.5943 26.1135 24.0375C25.6004 24.4807 25.0872 24.8422 24.5741 25.1221C24.0842 25.4253 23.6294 25.6586 23.2096 25.8219C22.7897 25.9851 22.4632 26.1018 22.2299 26.1717L21.5302 25.1221C21.8101 24.9822 22.09 24.7489 22.3699 24.4224C22.6498 24.1192 22.9064 23.6876 23.1396 23.1279C23.3962 22.5681 23.5944 21.8567 23.7344 20.9936C23.8977 20.1539 23.9793 19.1277 23.9793 17.9148V3.74499Z" fill="white"/>
<path d="M48.2363 13.6813C48.2363 14.1945 48.2363 14.6376 48.2363 15.0108C48.2596 15.384 48.2946 15.7806 48.3413 16.2004L50.7554 16.5503V17.7748C50.4755 17.9148 50.0906 18.0547 49.6008 18.1947C49.1343 18.3346 48.6328 18.4746 48.0963 18.6145C47.5832 18.7311 47.0701 18.8244 46.5569 18.8944C46.0438 18.9877 45.5889 19.0577 45.1924 19.1043H44.0028C43.7696 18.5679 43.6297 18.0314 43.583 17.4949C43.5364 16.9585 43.5014 16.3054 43.478 15.5357H43.3031C43.1865 16.0021 42.9882 16.457 42.7083 16.9001C42.4284 17.32 42.0669 17.7048 41.6237 18.0547C41.2039 18.3813 40.7024 18.6495 40.1193 18.8594C39.5362 19.0693 38.8831 19.1743 38.16 19.1743C37.3903 19.1743 36.6789 19.0577 36.0258 18.8244C35.3727 18.5912 34.8012 18.2646 34.3114 17.8448C33.8216 17.425 33.4367 16.9235 33.1568 16.3404C32.8769 15.7339 32.737 15.0575 32.737 14.3111C32.737 13.2615 32.9353 12.3985 33.3318 11.7221C33.7283 11.0456 34.3464 10.4975 35.1861 10.0777C36.0491 9.63449 37.1454 9.30794 38.4749 9.09802C39.8277 8.8881 41.4605 8.73649 43.3731 8.64319C43.5597 6.63726 43.478 5.1678 43.1282 4.23481C42.7783 3.30182 42.0202 2.83533 40.854 2.83533C40.1309 2.83533 39.4662 2.95195 38.8597 3.1852L37.2154 7.38365H35.6759C35.4893 7.10376 35.3027 6.78887 35.1161 6.439C34.9529 6.06581 34.7896 5.68095 34.6263 5.28443C34.4864 4.86458 34.3581 4.44474 34.2414 4.02489C34.1481 3.60505 34.0782 3.19686 34.0315 2.80034C34.9179 2.1939 36.0608 1.71574 37.4603 1.36587C38.8597 1.016 40.3409 0.841064 41.9036 0.841064C43.2331 0.841064 44.3177 0.992675 45.1574 1.2959C45.9971 1.57579 46.6502 1.97231 47.1167 2.48546C47.6065 2.97528 47.9447 3.5584 48.1313 4.23481C48.3179 4.91123 48.4112 5.6343 48.4112 6.40402C48.4112 7.8035 48.3762 9.0747 48.3063 10.2176C48.2596 11.3372 48.2363 12.4918 48.2363 13.6813ZM40.3642 16.3753C40.854 16.3753 41.2739 16.282 41.6237 16.0954C41.9736 15.9088 42.2652 15.6873 42.4984 15.4307C42.755 15.1741 42.9416 14.8942 43.0582 14.591C43.1981 14.2878 43.3031 14.0195 43.3731 13.7863V10.2876C42.2768 10.3109 41.3788 10.3809 40.6791 10.4975C39.9793 10.6141 39.4312 10.8124 39.0347 11.0923C38.6382 11.3489 38.3583 11.6871 38.195 12.1069C38.055 12.5034 37.9851 12.9933 37.9851 13.5764C37.9851 14.4627 38.195 15.1508 38.6148 15.6406C39.0347 16.1304 39.6178 16.3753 40.3642 16.3753Z" fill="white"/>
<path d="M73.3794 18.7545H64.1079V17.39C64.4111 17.2267 64.7026 17.0867 64.9825 16.9701C65.2858 16.8302 65.6356 16.6902 66.0322 16.5503V8.32831C66.0322 6.85885 65.8222 5.71593 65.4024 4.89957C64.9825 4.05988 64.2362 3.64003 63.1632 3.64003C62.2769 3.64003 61.5072 3.93159 60.8541 4.51471C60.2243 5.0745 59.7461 5.84422 59.4196 6.82386V16.5503C59.7928 16.6436 60.1193 16.7602 60.3992 16.9001C60.7024 17.0168 61.0173 17.18 61.3439 17.39V18.7545H52.0723V17.39C52.6554 17.0867 53.4251 16.8068 54.3814 16.5503V3.74499L52.0723 3.4651V2.1006C52.3755 1.96065 52.772 1.83237 53.2619 1.71574C53.7517 1.57579 54.2765 1.44751 54.8363 1.33088C55.4194 1.21426 56.0025 1.12096 56.5856 1.05099C57.1921 0.957688 57.7402 0.887713 58.23 0.841064H59.4196V4.44474H59.4546C59.9444 3.4651 60.6791 2.62541 61.6588 1.92566C62.6384 1.2026 63.828 0.841064 65.2275 0.841064C66.1371 0.841064 66.9535 0.957688 67.6765 1.19094C68.3996 1.40086 69.0061 1.78572 69.4959 2.34551C70.009 2.9053 70.3939 3.66336 70.6505 4.61967C70.9304 5.55266 71.0703 6.74222 71.0703 8.18836V16.5503C72.0033 16.7135 72.773 16.9934 73.3794 17.39V18.7545Z" fill="white"/>
<path d="M90.2277 13.6813C90.2277 14.1945 90.2277 14.6376 90.2277 15.0108C90.251 15.384 90.286 15.7806 90.3326 16.2004L92.7467 16.5503V17.7748C92.4668 17.9148 92.082 18.0547 91.5921 18.1947C91.1257 18.3346 90.6242 18.4746 90.0877 18.6145C89.5746 18.7311 89.0614 18.8244 88.5483 18.8944C88.0351 18.9877 87.5803 19.0577 87.1838 19.1043H85.9942C85.761 18.5679 85.621 18.0314 85.5744 17.4949C85.5277 16.9585 85.4927 16.3054 85.4694 15.5357H85.2945C85.1778 16.0021 84.9796 16.457 84.6997 16.9001C84.4198 17.32 84.0583 17.7048 83.6151 18.0547C83.1952 18.3813 82.6938 18.6495 82.1106 18.8594C81.5275 19.0693 80.8744 19.1743 80.1514 19.1743C79.3817 19.1743 78.6702 19.0577 78.0172 18.8244C77.3641 18.5912 76.7926 18.2646 76.3028 17.8448C75.813 17.425 75.4281 16.9235 75.1482 16.3404C74.8683 15.7339 74.7284 15.0575 74.7284 14.3111C74.7284 13.2615 74.9266 12.3985 75.3231 11.7221C75.7197 11.0456 76.3378 10.4975 77.1775 10.0777C78.0405 9.63449 79.1367 9.30794 80.4663 9.09802C81.8191 8.8881 83.4518 8.73649 85.3644 8.64319C85.551 6.63726 85.4694 5.1678 85.1195 4.23481C84.7697 3.30182 84.0116 2.83533 82.8454 2.83533C82.1223 2.83533 81.4576 2.95195 80.8511 3.1852L79.2067 7.38365H77.6673C77.4807 7.10376 77.2941 6.78887 77.1075 6.439C76.9442 6.06581 76.7809 5.68095 76.6177 5.28443C76.4777 4.86458 76.3494 4.44474 76.2328 4.02489C76.1395 3.60505 76.0695 3.19686 76.0229 2.80034C76.9092 2.1939 78.0521 1.71574 79.4516 1.36587C80.8511 1.016 82.3322 0.841064 83.895 0.841064C85.2245 0.841064 86.3091 0.992675 87.1488 1.2959C87.9885 1.57579 88.6416 1.97231 89.1081 2.48546C89.5979 2.97528 89.9361 3.5584 90.1227 4.23481C90.3093 4.91123 90.4026 5.6343 90.4026 6.40402C90.4026 7.8035 90.3676 9.0747 90.2976 10.2176C90.251 11.3372 90.2277 12.4918 90.2277 13.6813ZM82.3556 16.3753C82.8454 16.3753 83.2652 16.282 83.6151 16.0954C83.965 15.9088 84.2565 15.6873 84.4898 15.4307C84.7463 15.1741 84.9329 14.8942 85.0496 14.591C85.1895 14.2878 85.2945 14.0195 85.3644 13.7863V10.2876C84.2682 10.3109 83.3702 10.3809 82.6704 10.4975C81.9707 10.6141 81.4226 10.8124 81.026 11.0923C80.6295 11.3489 80.3496 11.6871 80.1864 12.1069C80.0464 12.5034 79.9764 12.9933 79.9764 13.5764C79.9764 14.4627 80.1864 15.1508 80.6062 15.6406C81.026 16.1304 81.6092 16.3753 82.3556 16.3753Z" fill="white"/>
<path d="M104 18.7545H94.3436V17.39C94.6934 17.2034 95.055 17.0518 95.4282 16.9351C95.8014 16.7952 96.2095 16.6669 96.6527 16.5503V3.74499L94.3436 3.4651V2.1006C94.6934 1.96065 95.1249 1.8207 95.6381 1.68075C96.1745 1.54081 96.7343 1.42418 97.3175 1.33088C97.9006 1.21426 98.472 1.12096 99.0318 1.05099C99.5916 0.957688 100.081 0.887713 100.501 0.841064H101.691V16.5503C102.157 16.6669 102.577 16.7952 102.95 16.9351C103.324 17.0518 103.673 17.2034 104 17.39V18.7545Z" fill="white"/>
</svg>
