<svg width="176" height="35" viewBox="0 0 176 35" fill="none" xmlns="http://www.w3.org/2000/svg">
<path d="M9.71202 34.4777H0.000488281V33.1055C0.798054 32.7301 1.57216 32.4486 2.32281 32.261V12.3453L0.000488281 12.0638V10.6915C0.375813 10.5273 0.833241 10.3748 1.37277 10.2341C1.93576 10.0933 2.51047 9.97605 3.09692 9.88222C3.68336 9.76493 4.24635 9.6711 4.78588 9.60073C5.34887 9.53035 5.81803 9.47171 6.19335 9.42479H7.3897V13.3657H7.42489C7.82367 12.2397 8.4453 11.3014 9.28978 10.5508C10.1577 9.80012 11.3541 9.42479 12.8788 9.42479C13.911 9.42479 14.8376 9.60073 15.6586 9.95259C16.5031 10.281 17.2068 10.8088 17.7698 11.536C18.3562 12.2397 18.8019 13.1546 19.1069 14.2806C19.4353 15.3831 19.5995 16.7084 19.5995 18.2567C19.5995 19.7345 19.3884 21.0716 18.9661 22.2679C18.5673 23.4643 17.9809 24.473 17.2068 25.294C16.4561 26.115 15.5296 26.7484 14.427 27.1941C13.348 27.6398 12.1164 27.8626 10.7324 27.8626C9.93487 27.8626 9.30151 27.804 8.83235 27.6867C8.38666 27.5929 7.90577 27.4169 7.3897 27.1589V32.261C7.76502 32.3079 8.14035 32.39 8.51567 32.5073C8.891 32.648 9.28978 32.8474 9.71202 33.1055V34.4777ZM10.838 12.2397C10.0404 12.2397 9.32497 12.5212 8.69161 13.0842C8.08171 13.6472 7.64774 14.5151 7.3897 15.688V25.0477C7.76502 25.3292 8.16381 25.5403 8.58605 25.6811C9.00829 25.7983 9.55955 25.857 10.2398 25.857C11.5769 25.857 12.5621 25.2119 13.1955 23.9217C13.8289 22.6315 14.1455 20.7432 14.1455 18.2567C14.1455 16.3331 13.8992 14.8553 13.4066 13.8231C12.9375 12.7675 12.0813 12.2397 10.838 12.2397Z" fill="white"/>
<path d="M36.8894 22.3383C36.8894 22.8544 36.8894 23.3001 36.8894 23.6754C36.9128 24.0507 36.948 24.4495 36.9949 24.8718L39.4228 25.2236V26.4552C39.1413 26.5959 38.7543 26.7367 38.2616 26.8774C37.7925 27.0182 37.2881 27.1589 36.7486 27.2996C36.2325 27.4169 35.7165 27.5108 35.2004 27.5811C34.6843 27.675 34.2269 27.7453 33.8281 27.7923H32.6318C32.3972 27.2527 32.2564 26.7132 32.2095 26.1737C32.1626 25.6341 32.1274 24.9773 32.104 24.2032H31.928C31.8108 24.6724 31.6114 25.1298 31.3299 25.5755C31.0484 25.9977 30.6848 26.3848 30.2391 26.7367C29.8168 27.0651 29.3125 27.3348 28.726 27.546C28.1396 27.7571 27.4828 27.8626 26.7556 27.8626C25.9815 27.8626 25.266 27.7453 24.6092 27.5108C23.9524 27.2762 23.3777 26.9478 22.8851 26.5255C22.3924 26.1033 22.0054 25.599 21.7239 25.0125C21.4424 24.4026 21.3016 23.7223 21.3016 22.9717C21.3016 21.9161 21.501 21.0481 21.8998 20.3679C22.2986 19.6876 22.9202 19.1363 23.7647 18.7141C24.6327 18.2684 25.7352 17.94 27.0723 17.7289C28.4328 17.5177 30.0749 17.3653 31.9984 17.2714C32.1861 15.2541 32.104 13.7762 31.7521 12.8379C31.4002 11.8996 30.6379 11.4304 29.465 11.4304C28.7378 11.4304 28.0692 11.5477 27.4593 11.7823L25.8055 16.0047H24.2573C24.0697 15.7232 23.882 15.4065 23.6943 15.0547C23.5301 14.6793 23.3659 14.2923 23.2017 13.8935C23.061 13.4713 22.932 13.049 22.8147 12.6268C22.7208 12.2045 22.6505 11.794 22.6036 11.3952C23.495 10.7853 24.6444 10.3045 26.0519 9.95259C27.4593 9.60073 28.9489 9.42479 30.5206 9.42479C31.8577 9.42479 32.9485 9.57727 33.7929 9.88222C34.6374 10.1637 35.2942 10.5625 35.7634 11.0786C36.256 11.5712 36.5961 12.1576 36.7838 12.8379C36.9715 13.5182 37.0653 14.2454 37.0653 15.0195C37.0653 16.427 37.0301 17.7054 36.9597 18.8548C36.9128 19.9808 36.8894 21.142 36.8894 22.3383ZM28.9724 25.0477C29.465 25.0477 29.8872 24.9539 30.2391 24.7662C30.5909 24.5785 30.8842 24.3557 31.1187 24.0977C31.3768 23.8396 31.5644 23.5581 31.6817 23.2532C31.8225 22.9482 31.928 22.6785 31.9984 22.4439V18.9252C30.8959 18.9487 29.9928 19.019 29.289 19.1363C28.5853 19.2536 28.034 19.453 27.6353 19.7345C27.2365 19.9925 26.955 20.3327 26.7908 20.7549C26.65 21.1537 26.5797 21.6463 26.5797 22.2328C26.5797 23.1242 26.7908 23.8162 27.213 24.3088C27.6353 24.8014 28.2217 25.0477 28.9724 25.0477Z" fill="white"/>
<path d="M42.0844 20.4734C42.0844 18.9956 42.1195 17.6233 42.1899 16.3566C42.2603 15.0899 42.2955 13.7528 42.2955 12.3453L39.9731 12.0638V10.6915C40.3485 10.5508 40.8059 10.41 41.3454 10.2693C41.9084 10.1285 42.4831 10.0112 43.0696 9.91741C43.656 9.80012 44.219 9.70629 44.7585 9.63591C45.3215 9.54208 45.7907 9.47171 46.166 9.42479H47.3624C47.3624 11.1841 47.3272 12.92 47.2568 14.6324C47.1864 16.3214 47.1512 17.9869 47.1512 19.6289C47.1512 21.5525 47.3389 22.9365 47.7142 23.781C48.113 24.6255 48.8402 25.0477 49.8958 25.0477C50.623 25.0477 51.2915 24.7779 51.9014 24.2384C52.5348 23.6754 53.0509 22.784 53.4497 21.5642V12.3453L51.1625 12.0638V10.6915C51.5144 10.5508 51.9484 10.41 52.4644 10.2693C53.004 10.1285 53.5552 10.0112 54.1182 9.91741C54.7047 9.80012 55.2794 9.70629 55.8424 9.63591C56.4053 9.54208 56.898 9.47171 57.3202 9.42479H58.5166V24.9421L60.8389 25.2236V26.4552C60.5105 26.5959 60.1 26.7367 59.6073 26.8774C59.1147 27.0182 58.5987 27.1589 58.0591 27.2996C57.5196 27.4169 56.9801 27.5108 56.4405 27.5811C55.9245 27.675 55.4553 27.7453 55.0331 27.7923H53.8367L53.5904 23.605H53.4497C53.3324 24.0977 53.1213 24.602 52.8163 25.1181C52.5113 25.6107 52.1126 26.0681 51.62 26.4904C51.1508 26.8891 50.5878 27.2175 49.931 27.4756C49.2742 27.7336 48.547 27.8626 47.7494 27.8626C46.858 27.8626 46.0605 27.7453 45.3567 27.5108C44.6764 27.2996 44.09 26.9126 43.5974 26.3496C43.1048 25.7866 42.7294 25.036 42.4714 24.0977C42.2134 23.1359 42.0844 21.9278 42.0844 20.4734Z" fill="white"/>
<path d="M71.9252 27.4404H62.2136V26.0681C62.9877 25.6928 63.7618 25.4113 64.536 25.2236V3.90048L61.8618 3.61898V2.2467C62.1667 2.10595 62.589 1.96521 63.1285 1.82446C63.668 1.68371 64.2427 1.56643 64.8526 1.47259C65.486 1.35531 66.1076 1.26147 66.7175 1.1911C67.3509 1.09727 67.9139 1.0269 68.4065 0.97998H69.6028V25.2236C70.377 25.4113 71.1511 25.6928 71.9252 26.0681V27.4404Z" fill="white"/>
<path d="M73.5449 18.6437C73.5449 17.2128 73.756 15.9343 74.1782 14.8084C74.6239 13.6589 75.2455 12.6854 76.0431 11.8879C76.8641 11.0903 77.8494 10.4804 78.9988 10.0582C80.1482 9.63591 81.4501 9.42479 82.9045 9.42479C84.5466 9.42479 85.954 9.65937 87.1269 10.1285C88.3233 10.5742 89.2968 11.2076 90.0474 12.0286C90.8215 12.8262 91.3845 13.7997 91.7364 14.9491C92.0883 16.0751 92.2642 17.3066 92.2642 18.6437C92.2642 20.0746 92.0531 21.3648 91.6308 22.5143C91.2086 23.6402 90.587 24.602 89.7659 25.3996C88.9684 26.1971 87.9831 26.807 86.8102 27.2293C85.6608 27.6515 84.3589 27.8626 82.9045 27.8626C81.3094 27.8626 79.9254 27.6398 78.7525 27.1941C77.5796 26.7249 76.6061 26.0916 75.832 25.294C75.0579 24.473 74.4832 23.4995 74.1078 22.3735C73.7325 21.2241 73.5449 19.9808 73.5449 18.6437ZM78.9988 18.6437C78.9988 19.6993 79.0574 20.6728 79.1747 21.5642C79.3155 22.4322 79.5501 23.1711 79.8785 23.781C80.2069 24.3909 80.6526 24.8718 81.2156 25.2236C81.7785 25.552 82.5057 25.7162 83.3971 25.7162C83.9132 25.7162 84.3824 25.599 84.8046 25.3644C85.2268 25.1063 85.5904 24.7076 85.8954 24.168C86.2003 23.605 86.4232 22.8778 86.5639 21.9865C86.7281 21.0716 86.8102 19.9574 86.8102 18.6437C86.8102 17.5647 86.7399 16.5912 86.5991 15.7232C86.4818 14.8553 86.259 14.1164 85.9306 13.5065C85.6256 12.8965 85.2034 12.4274 84.6639 12.099C84.1243 11.7471 83.4441 11.5712 82.623 11.5712C82.0131 11.5712 81.4853 11.7002 81.0396 11.9582C80.5939 12.1928 80.2186 12.5916 79.9136 13.1546C79.6087 13.6941 79.3741 14.4213 79.2099 15.3362C79.0692 16.2276 78.9988 17.3301 78.9988 18.6437Z" fill="white"/>
<path d="M96.4074 12.3453L94.0851 12.0638V10.6915C94.437 10.5273 94.8709 10.3748 95.387 10.2341C95.9031 10.0933 96.4543 9.97605 97.0408 9.88222C97.6272 9.76493 98.2019 9.6711 98.7649 9.60073C99.3514 9.53035 99.8557 9.47171 100.278 9.42479H101.474V25.9274C101.474 27.0299 101.334 28.0151 101.052 28.883C100.794 29.751 100.442 30.5016 99.9965 31.135C99.5742 31.7684 99.0933 32.3079 98.5538 32.7536C98.0377 33.1993 97.5217 33.5629 97.0056 33.8444C96.513 34.1493 96.0556 34.3839 95.6333 34.5481C95.2111 34.7123 94.8827 34.8296 94.6481 34.9L93.9444 33.8444C94.2258 33.7036 94.5073 33.4691 94.7888 33.1406C95.0703 32.8357 95.3284 32.4017 95.5629 31.8387C95.821 31.2757 96.0204 30.5603 96.1611 29.6923C96.3253 28.8479 96.4074 27.8157 96.4074 26.5959V12.3453Z" fill="white"/>
<path d="M120.451 22.3383C120.451 22.8544 120.451 23.3001 120.451 23.6754C120.474 24.0507 120.51 24.4495 120.557 24.8718L122.984 25.2236V26.4552C122.703 26.5959 122.316 26.7367 121.823 26.8774C121.354 27.0182 120.85 27.1589 120.31 27.2996C119.794 27.4169 119.278 27.5108 118.762 27.5811C118.246 27.675 117.788 27.7453 117.39 27.7923H116.193C115.959 27.2527 115.818 26.7132 115.771 26.1737C115.724 25.6341 115.689 24.9773 115.666 24.2032H115.49C115.372 24.6724 115.173 25.1298 114.891 25.5755C114.61 25.9977 114.246 26.3848 113.801 26.7367C113.378 27.0651 112.874 27.3348 112.288 27.546C111.701 27.7571 111.044 27.8626 110.317 27.8626C109.543 27.8626 108.828 27.7453 108.171 27.5108C107.514 27.2762 106.939 26.9478 106.447 26.5255C105.954 26.1033 105.567 25.599 105.285 25.0125C105.004 24.4026 104.863 23.7223 104.863 22.9717C104.863 21.9161 105.063 21.0481 105.461 20.3679C105.86 19.6876 106.482 19.1363 107.326 18.7141C108.194 18.2684 109.297 17.94 110.634 17.7289C111.994 17.5177 113.636 17.3653 115.56 17.2714C115.748 15.2541 115.666 13.7762 115.314 12.8379C114.962 11.8996 114.199 11.4304 113.027 11.4304C112.299 11.4304 111.631 11.5477 111.021 11.7823L109.367 16.0047H107.819C107.631 15.7232 107.444 15.4065 107.256 15.0547C107.092 14.6793 106.928 14.2923 106.763 13.8935C106.623 13.4713 106.494 13.049 106.376 12.6268C106.282 12.2045 106.212 11.794 106.165 11.3952C107.057 10.7853 108.206 10.3045 109.613 9.95259C111.021 9.60073 112.51 9.42479 114.082 9.42479C115.419 9.42479 116.51 9.57727 117.355 9.88222C118.199 10.1637 118.856 10.5625 119.325 11.0786C119.818 11.5712 120.158 12.1576 120.345 12.8379C120.533 13.5182 120.627 14.2454 120.627 15.0195C120.627 16.427 120.592 17.7054 120.521 18.8548C120.474 19.9808 120.451 21.142 120.451 22.3383ZM112.534 25.0477C113.027 25.0477 113.449 24.9539 113.801 24.7662C114.153 24.5785 114.446 24.3557 114.68 24.0977C114.938 23.8396 115.126 23.5581 115.243 23.2532C115.384 22.9482 115.49 22.6785 115.56 22.4439V18.9252C114.457 18.9487 113.554 19.019 112.851 19.1363C112.147 19.2536 111.596 19.453 111.197 19.7345C110.798 19.9925 110.517 20.3327 110.352 20.7549C110.212 21.1537 110.141 21.6463 110.141 22.2328C110.141 23.1242 110.352 23.8162 110.775 24.3088C111.197 24.8014 111.783 25.0477 112.534 25.0477Z" fill="white"/>
<path d="M145.386 27.4404H136.061V26.0681C136.366 25.9039 136.659 25.7632 136.941 25.6459C137.246 25.5051 137.598 25.3644 137.996 25.2236V16.9548C137.996 15.4769 137.785 14.3275 137.363 13.5065C136.941 12.662 136.19 12.2397 135.111 12.2397C134.22 12.2397 133.446 12.533 132.789 13.1194C132.155 13.6824 131.675 14.4565 131.346 15.4417V25.2236C131.722 25.3175 132.05 25.4348 132.331 25.5755C132.636 25.6928 132.953 25.857 133.281 26.0681V27.4404H123.957V26.0681C124.543 25.7632 125.318 25.4817 126.279 25.2236V12.3453L123.957 12.0638V10.6915C124.262 10.5508 124.661 10.4218 125.153 10.3045C125.646 10.1637 126.174 10.0347 126.737 9.91741C127.323 9.80012 127.91 9.70629 128.496 9.63591C129.106 9.54208 129.657 9.47171 130.15 9.42479H131.346V13.049H131.381C131.874 12.0638 132.613 11.2193 133.598 10.5156C134.583 9.78839 135.78 9.42479 137.187 9.42479C138.102 9.42479 138.923 9.54208 139.65 9.77666C140.377 9.98778 140.987 10.3748 141.48 10.9378C141.996 11.5008 142.383 12.2632 142.641 13.225C142.923 14.1633 143.063 15.3596 143.063 16.814V25.2236C144.002 25.3878 144.776 25.6693 145.386 26.0681V27.4404Z" fill="white"/>
<path d="M161.978 22.3383C161.978 22.8544 161.978 23.3001 161.978 23.6754C162.002 24.0507 162.037 24.4495 162.084 24.8718L164.512 25.2236V26.4552C164.23 26.5959 163.843 26.7367 163.35 26.8774C162.881 27.0182 162.377 27.1589 161.837 27.2996C161.321 27.4169 160.805 27.5108 160.289 27.5811C159.773 27.675 159.316 27.7453 158.917 27.7923H157.721C157.486 27.2527 157.345 26.7132 157.298 26.1737C157.251 25.6341 157.216 24.9773 157.193 24.2032H157.017C156.9 24.6724 156.7 25.1298 156.419 25.5755C156.137 25.9977 155.774 26.3848 155.328 26.7367C154.906 27.0651 154.401 27.3348 153.815 27.546C153.228 27.7571 152.572 27.8626 151.844 27.8626C151.07 27.8626 150.355 27.7453 149.698 27.5108C149.041 27.2762 148.466 26.9478 147.974 26.5255C147.481 26.1033 147.094 25.599 146.813 25.0125C146.531 24.4026 146.39 23.7223 146.39 22.9717C146.39 21.9161 146.59 21.0481 146.989 20.3679C147.387 19.6876 148.009 19.1363 148.854 18.7141C149.721 18.2684 150.824 17.94 152.161 17.7289C153.522 17.5177 155.164 17.3653 157.087 17.2714C157.275 15.2541 157.193 13.7762 156.841 12.8379C156.489 11.8996 155.727 11.4304 154.554 11.4304C153.827 11.4304 153.158 11.5477 152.548 11.7823L150.894 16.0047H149.346C149.158 15.7232 148.971 15.4065 148.783 15.0547C148.619 14.6793 148.455 14.2923 148.291 13.8935C148.15 13.4713 148.021 13.049 147.903 12.6268C147.81 12.2045 147.739 11.794 147.692 11.3952C148.584 10.7853 149.733 10.3045 151.141 9.95259C152.548 9.60073 154.038 9.42479 155.609 9.42479C156.946 9.42479 158.037 9.57727 158.882 9.88222C159.726 10.1637 160.383 10.5625 160.852 11.0786C161.345 11.5712 161.685 12.1576 161.873 12.8379C162.06 13.5182 162.154 14.2454 162.154 15.0195C162.154 16.427 162.119 17.7054 162.049 18.8548C162.002 19.9808 161.978 21.142 161.978 22.3383ZM154.061 25.0477C154.554 25.0477 154.976 24.9539 155.328 24.7662C155.68 24.5785 155.973 24.3557 156.208 24.0977C156.466 23.8396 156.653 23.5581 156.771 23.2532C156.911 22.9482 157.017 22.6785 157.087 22.4439V18.9252C155.985 18.9487 155.082 19.019 154.378 19.1363C153.674 19.2536 153.123 19.453 152.724 19.7345C152.325 19.9925 152.044 20.3327 151.88 20.7549C151.739 21.1537 151.668 21.6463 151.668 22.2328C151.668 23.1242 151.88 23.8162 152.302 24.3088C152.724 24.8014 153.31 25.0477 154.061 25.0477Z" fill="white"/>
<path d="M175.477 27.4404H165.766V26.0681C166.118 25.8804 166.481 25.728 166.856 25.6107C167.232 25.4699 167.642 25.3409 168.088 25.2236V12.3453L165.766 12.0638V10.6915C166.118 10.5508 166.552 10.41 167.068 10.2693C167.607 10.1285 168.17 10.0112 168.757 9.91741C169.343 9.80012 169.918 9.70629 170.481 9.63591C171.044 9.54208 171.536 9.47171 171.959 9.42479H173.155V25.2236C173.624 25.3409 174.046 25.4699 174.422 25.6107C174.797 25.728 175.149 25.8804 175.477 26.0681V27.4404Z" fill="white"/>
</svg>
